<svg width="8" height="28" viewBox="0 0 8 28" fill="none" xmlns="http://www.w3.org/2000/svg">
<path d="M1.16699 23.9167C1.16699 25.475 2.44199 26.75 4.00033 26.75C5.55866 26.75 6.83366 25.475 6.83366 23.9167C6.83366 22.3583 5.55866 21.0833 4.00033 21.0833C2.44199 21.0833 1.16699 22.3583 1.16699 23.9167Z" stroke="#A3B2C7" stroke-width="1.50667"/>
<path d="M1.16699 4.08317C1.16699 5.6415 2.44199 6.9165 4.00033 6.9165C5.55866 6.9165 6.83366 5.6415 6.83366 4.08317C6.83366 2.52484 5.55866 1.24984 4.00032 1.24984C2.44199 1.24984 1.16699 2.52484 1.16699 4.08317Z" stroke="#A3B2C7" stroke-width="1.50667"/>
<path d="M1.16699 14.0002C1.16699 15.5585 2.44199 16.8335 4.00033 16.8335C5.55866 16.8335 6.83366 15.5585 6.83366 14.0002C6.83366 12.4418 5.55866 11.1668 4.00032 11.1668C2.44199 11.1668 1.16699 12.4418 1.16699 14.0002Z" stroke="#A3B2C7" stroke-width="1.50667"/>
</svg>
